<svg xmlns="http://www.w3.org/2000/svg" viewBox="0 0 64 64" fill="none" stroke="currentColor" stroke-width="2.4" stroke-linecap="round" stroke-linejoin="round">
  <path d="M32.0 32.0L32.1 32.0L32.2 32.0L32.3 32.1L32.5 32.1L32.6 32.2L32.6 32.3L32.7 32.4L32.8 32.5L32.8 32.7L32.9 32.8L32.9 33.0L32.9 33.1L32.9 33.3L32.8 33.4L32.8 33.6L32.7 33.8L32.6 33.9L32.5 34.1L32.4 34.2L32.2 34.4L32.0 34.5L31.8 34.6L31.6 34.7L31.4 34.8L31.2 34.8L30.9 34.9L30.7 34.9L30.4 34.9L30.1 34.9L29.8 34.8L29.5 34.7L29.3 34.6L29.0 34.5L28.7 34.3L28.4 34.1L28.2 33.9L27.9 33.7L27.7 33.4L27.5 33.1L27.3 32.8L27.2 32.5L27.0 32.1L26.9 31.7L26.8 31.3L26.8 30.9L26.7 30.5L26.8 30.1L26.8 29.7L26.9 29.2L27.0 28.8L27.2 28.4L27.4 27.9L27.6 27.5L27.9 27.1L28.2 26.7L28.5 26.3L28.9 26.0L29.3 25.7L29.7 25.4L30.2 25.1L30.7 24.9L31.2 24.7L31.7 24.5L32.3 24.4L32.9 24.3L33.5 24.3L34.1 24.3L34.7 24.4L35.3 24.5L35.9 24.6L36.5 24.9L37.1 25.1L37.6 25.4L38.2 25.8L38.7 26.2L39.2 26.6L39.7 27.1L40.2 27.6L40.6 28.2L41.0 28.8L41.3 29.4L41.6 30.1L41.8 30.8L42.0 31.5L42.1 32.3L42.2 33.0L42.2 33.8L42.1 34.6L42.0 35.4L41.8 36.2L41.6 36.9L41.3 37.7L41.0 38.4L40.6 39.2L40.1 39.9L39.6 40.5L39.0 41.2L38.4 41.8L37.7 42.3L36.9 42.8L36.2 43.3L35.3 43.6L34.5 44.0L33.6 44.2L32.7 44.5L31.8 44.6L30.8 44.7L29.9 44.7L28.9 44.6L28.0 44.4L27.0 44.2L26.1 43.9L25.1 43.5L24.2 43.1L23.4 42.6L22.5 42.0L21.7 41.3L20.9 40.6L20.2 39.8L19.6 39.0L19.0 38.1L18.5 37.2L18.0 36.2L17.6 35.2L17.3 34.1L17.1 33.0L16.9 31.9L16.8 30.8L16.9 29.6L17.0 28.5L17.1 27.4L17.4 26.2L17.8 25.1L18.2 24.0L18.8 22.9L19.4 21.9L20.1 20.9L20.8 20.0L21.7 19.1L22.6 18.3L23.6 17.5L24.6 16.8L25.7 16.2L26.9 15.7L28.1 15.2L29.3 14.9L30.6 14.6L31.9 14.4L33.2 14.3L34.5 14.4L35.9 14.5L37.2 14.7L38.5 15.0L39.8 15.4L41.1 16.0L42.3 16.6L43.5 17.3L44.6 18.1L45.7 19.0L46.7 20.0L47.7 21.0L48.5 22.2L49.3 23.4L50.0 24.6L50.6 25.9L51.2 27.3L51.6 28.7L51.9 30.2L52.1 31.7L52.2 33.2L52.1 34.7L52.0 36.2L51.8 37.7L51.4 39.2L50.9 40.6L50.3 42.1L49.6 43.5L48.8 44.8L47.9 46.1L46.9 47.3L45.8 48.5L44.6 49.6L43.3 50.6L42.0 51.4L40.6 52.2L39.1 52.9L37.5 53.5L35.9 54.0L34.3 54.3L32.6 54.6L31.0 54.7L29.3 54.6L27.6 54.5L25.9 54.2L24.2 53.8L22.6 53.3L21.0 52.6L19.4 51.9L17.9 51.0L16.4 50.0L15.1 48.8L13.8 47.6L12.6 46.3L11.5 44.9L10.5 43.4L9.6 41.8L8.8 40.1L8.1 38.4L7.6 36.7L7.2 34.8L7.0 33.0L6.8 31.1L6.8 29.3L7.0 27.4L7.3 25.5L7.7 23.7L8.3 21.8L9.0 20.0L9.9 18.3L10.9 16.6"/>
</svg>
